<?xml version="1.0" standalone="no"?>
<!DOCTYPE svg PUBLIC "-//W3C//DTD SVG 1.1//EN" "http://www.w3.org/Graphics/SVG/1.1/DTD/svg11.dtd" >
<!--
2013-9-30: Created.
-->
<svg>
<metadata>
Created by iconfont
</metadata>
<defs>

<font id="ox-iconfont" horiz-adv-x="1024" >
  <font-face
    font-family="ox-iconfont"
    font-weight="500"
    font-stretch="normal"
    units-per-em="1024"
    ascent="896"
    descent="-128"
  />
    <missing-glyph />
    
    <glyph glyph-name="circle-check-outline" unicode="&#58913;" d="M512 752c-203.177 0-368-164.823-368-368 0-203.217 164.799-368 368-368 203.281 0 368 164.735 368 368 0 203.225-164.743 368-368 368z m0 80c247.488 0 448-200.64 448-448 0-247.424-200.512-448-448-448-247.36 0-448 200.576-448 448C64 631.36 264.64 832 512 832zM462.068 319.15599999999995l224.506 224.507c16.011 16.011 41.971 16.011 57.983 0 16.011-16.012 16.011-41.972 0-57.983L495.6 236.72299999999996a41.306 41.306 0 0 0-4.187-4.894c-16.012-16.012-41.972-16.012-57.983 0L307.565 357.69399999999996c-16.012 16.011-16.012 41.97 0 57.982 16.011 16.012 41.971 16.012 57.983 0l96.52-96.52z"  horiz-adv-x="1024" />

    
    <glyph glyph-name="minus" unicode="&#59082;" d="M281.2 333.20000000000005c-28.277 0-51.2 22.923-51.2 51.2 0 28.277 22.923 51.2 51.2 51.2H742c28.277 0 51.2-22.923 51.2-51.2 0-28.277-22.923-51.2-51.2-51.2H281.2z"  horiz-adv-x="1024" />

    
    <glyph glyph-name="circle-plus-outline" unicode="&#58926;" d="M512 752c-203.201 0-368-164.783-368-368 0-203.177 164.823-368 368-368 203.217 0 368 164.799 368 368 0 203.241-164.759 368-368 368z m0 80c247.424 0 448-200.576 448-448 0-247.36-200.576-448-448-448-247.36 0-448 200.64-448 448C64 631.424 264.64 832 512 832zM734.272 342.784l-181.12 0.064v-181.184c0-23.488-18.368-42.624-41.152-42.624-22.72-0.064-41.152 19.072-41.152 42.56V342.84799999999996h-181.12c-23.488-0.064-42.752 18.496-42.752 41.088 0.128 22.656 19.264 41.152 42.88 41.088h180.992V606.2080000000001c0 23.68 18.496 42.688 41.152 42.752 22.72 0.064 41.152-19.136 41.152-42.688v-181.248h181.12c23.616 0.128 42.752-18.432 42.752-41.152 0-22.528-19.008-41.088-42.752-41.088z"  horiz-adv-x="1024" />

    
    <glyph glyph-name="date" unicode="&#59136;" d="M896 768l-128 0L768 864C768 883.2 755.2 896 736 896 716.8 896 704 883.2 704 864L704 768 320 768 320 864C320 883.2 307.2 896 288 896 268.8 896 256 883.2 256 864L256 768 128 768C57.6 768 0 710.4 0 640l0-128 0-64 0-448c0-70.4 57.6-128 128-128l768 0c70.4 0 128 57.6 128 128L1024 448 1024 512 1024 640C1024 710.4 966.4 768 896 768zM128 704l128 0 0-64c0-19.2 12.8-32 32-32C307.2 608 320 620.8 320 640L320 704l384 0 0-64c0-19.2 12.8-32 32-32C755.2 608 768 620.8 768 640L768 704l128 0c32 0 64-25.6 64-64l0-128L64 512 64 640C64 678.4 89.6 704 128 704zM896-64L128-64c-32 0-64 25.6-64 64L64 448l896 0 0-448C960-38.39999999999998 934.4-64 896-64zM192 320l128 0 0-64-128 0 0 64ZM192 128l128 0 0-64-128 0 0 64ZM448 320l128 0 0-64-128 0 0 64ZM448 128l128 0 0-64-128 0 0 64ZM704 320l128 0 0-64-128 0 0 64ZM704 128l128 0 0-64-128 0 0 64Z"  horiz-adv-x="1024" />

    
    <glyph glyph-name="success" unicode="&#58958;" d="M460.418 319.78200000000004l-96.52 96.52c-16.012 16.011-41.972 16.011-57.983 0-16.012-16.012-16.012-41.972 0-57.983L431.78 232.45399999999995c16.011-16.012 41.97-16.012 57.982 0a41.306 41.306 0 0 1 4.188 4.894l248.957 248.957c16.011 16.012 16.011 41.972 0 57.983-16.012 16.012-41.972 16.012-57.983 0L460.418 319.78200000000004zM512 832c247.488 0 448-200.64 448-448 0-247.424-200.512-448-448-448-247.36 0-448 200.576-448 448C64 631.36 264.64 832 512 832z"  horiz-adv-x="1024" />

    
    <glyph glyph-name="service" unicode="&#58939;" d="M904.554584 490.190531c-24.681122 20.36584-54.147224 31.485085-82.058924 37.33635-4.137227 13.394055-23.056112 69.451792-65.453734 125.861546-64.153112 85.33862-151.449317 130.454144-252.390287 130.454144-222.030839 0-291.385417-213.216079-302.59062-253.943666-28.317952-5.813403-58.277288-16.980743-83.235726-37.621852C84.159772 463.625502 65.526389 422.625716 63.498196 370.4371l-0.048095-0.954745 0.048095-0.954745c3.101641-79.386048 28.104081-136.204102 74.316589-168.900781 33.067116-23.3805 70.809719-29.702486 101.94381-29.702486 35.190477 0 61.911048 8.063653 63.962777 8.696056l17.201777 5.332449L320.92315 530.093333l-20.780279 3.148713c-1.823532 0.280386-19.971867 2.90619-45.512566 2.362814 18.884093 57.003272 82.795705 199.37791 250.021334 199.37791 169.08907 0 241.99145-144.861272 264.045745-201.561645-25.211195 0.48914-43.064818-2.12336-44.841278-2.397606l-20.732184-3.173273 0-349.84997 17.105586-5.368264c1.763157-0.553609 21.791305-6.662747 49.754171-8.370645-17.394159-42.467207-79.895655-143.30073-278.45492-130.051985l-3.291976-48.741098c13.169951-0.89437 25.790386-1.311879 37.957497-1.311879 231.771691 0.021489 287.657512 153.501046 296.259424 183.110411 21.005406 3.958148 42.850947 11.81407 63.013149 26.025747 46.712905 32.93511 71.978335 90.575902 75.079976 173.194574C958.497147 419.595706 939.673429 461.215616 904.554584 490.190531zM272.062326 486.564957l0-265.011746c-24.668843-4.115738-70.809719-7.085372-106.262162 18.131963-32.852222 23.3805-50.840922 67.039859-53.441143 129.785925 1.6465 37.683251 13.908778 65.50183 37.4571 85.028559C186.556906 485.001345 242.073314 487.602589 272.062326 486.564957zM857.530594 233.39797999999996c-35.33374-25.086351-81.116459-22.044062-105.546871-17.917068L751.983723 484.524484c33.042557 1.264806 86.818321-3.399423 121.483842-32.017204 24.239054-20.016893 36.740786-48.764634 38.267559-86.019119C909.254629 301.91754000000003 891.003963 257.13663699999995 857.530594 233.39797999999996z"  horiz-adv-x="1024" />

    
    <glyph glyph-name="menu" unicode="&#59043;" d="M844.8 12.8l-256 0c-19.2 0-38.4 19.2-38.4 38.4l0 256c0 19.2 19.2 38.4 38.4 38.4l256 0c19.2 0 38.4-19.2 38.4-38.4l0-256C883.2 32 864 12.8 844.8 12.8zM844.8 416l-256 0c-19.2 0-38.4 19.2-38.4 38.4l0 256c0 19.2 19.2 38.4 38.4 38.4l256 0c19.2 0 38.4-19.2 38.4-38.4l0-256C883.2 435.2 864 416 844.8 416zM435.2 12.8l-256 0c-19.2 0-38.4 19.2-38.4 38.4l0 256c0 19.2 19.2 38.4 38.4 38.4l256 0c19.2 0 38.4-19.2 38.4-38.4l0-256C480 32 460.8 12.8 435.2 12.8zM435.2 416l-256 0c-19.2 0-38.4 19.2-38.4 38.4l0 256c0 19.2 19.2 38.4 38.4 38.4l256 0c19.2 0 38.4-19.2 38.4-38.4l0-256C480 435.2 460.8 416 435.2 416z"  horiz-adv-x="1024" />

    
    <glyph glyph-name="upload" unicode="&#58968;" d="M566.112 0h212.992q102.016 3.008 173.504 76.992t71.488 176q0 104.992-74.016 179.488t-178.016 74.496h-8v8q0 104.992-73.504 179.008T512.544 768t-178.496-74.016-74.016-179.008v-8h-8q-104 0-178.016-74.496t-74.016-179.488q0-102.016 71.488-176T244.992 0h228.992v172h-90.016q-20 0-26.016 11.008t4.992 27.008l140 214.016q7.008 10.016 16.512 10.016t16.512-10.016l140.992-214.016q10.016-16 4-27.008t-24.992-11.008h-90.016V0z"  horiz-adv-x="1024" />

    
    <glyph glyph-name="time" unicode="&#58891;" d="M925.468269 209.35130500000002a447.658169 447.658169 0 0 0-96.142115-142.64873A447.203059 447.203059 0 0 0 512.000284-64.71061299999997a447.515947 447.515947 0 0 0-317.325869 131.413188A447.658169 447.658169 0 0 0 63.261227 384c0 60.586599 11.86132 119.352756 35.214184 174.648695a447.544392 447.544392 0 0 0 96.170559 142.64873 447.60128 447.60128 0 0 0 142.677175 96.199004A446.036838 446.036838 0 0 0 512.000284 832.739057a447.288392 447.288392 0 0 0 317.297426-131.441632A447.544392 447.544392 0 0 0 960.739341 384c0-60.586599-11.832876-119.352756-35.242627-174.648695m58.311046 373.958696a510.292766 510.292766 0 0 1-109.738545 162.702041 509.439434 509.439434 0 0 1-162.75893 109.738545A508.756768 508.756768 0 0 1 512.000284 895.999431c-69.119923 0-136.163404-13.539541-199.31-40.248844a509.439434 509.439434 0 0 1-162.702042-109.7101 509.723878 509.723878 0 0 1-109.7101-162.730486A508.785212 508.785212 0 0 1 0.000853 384a510.065211 510.065211 0 0 1 149.958945-362.040487A510.349655 510.349655 0 0 1 512.000284-127.99943099999996a510.349655 510.349655 0 0 1 362.012043 149.958944A510.605655 510.605655 0 0 1 1024.056604 384c0 69.119923-13.567985 136.163404-40.248844 199.310001M449.70702 570.99357v-211.853987l211.114432-209.805989 44.373284 45.255061-186.48157 190.60601V571.1642360000001z"  horiz-adv-x="1024" />

    
    <glyph glyph-name="edit" unicode="&#58920;" d="M694.1 815.8c17.9 17.9 47.4 17.3 66.3-1.6l101.8-101.8c18.7-18.7 19.5-48.3 1.6-66.3L362.5 144.9c-8.9-8.9-26-18.8-38.5-22.2l-161.6-44.1c-24.6-6.7-39.5 8-33.3 32.6L171 276.3c3.1 12.3 13 29.6 21.8 38.4L694.1 815.8zM226.8 280.6c-3.3-3.3-9.1-13.6-10.3-18l-32.7-129.1 125.9 34.4c5 1.4 15.3 7.4 18.9 10.9L829.8 680 728 781.8 226.8 280.6z m465.7 465.7l101.8-101.8-33.9-33.9-101.8 101.8 33.9 33.9zM285.3 339.2l101.8-101.8-33.9-33.9-101.8 101.7 33.9 34zM116.5-36.1c0 13.2 10.6 24 24.1 24h743.5c13.3 0 24-10.7 24-24s-10.7-24-24-24H140.7c-13.3-0.1-24.1 10.6-24.1 23.8-0.1 0.1-0.1 0.2-0.1 0.2z"  horiz-adv-x="1024" />

    
    <glyph glyph-name="bell" unicode="&#58885;" d="M928.954182 103.796364h-66.094546l-46.545454 370.501818c0 185.250909-97.373091 288.581818-279.272727 301.614545V870.865455a24.948364 24.948364 0 1 1-49.896728 0v-94.952728c-181.527273-13.032727-279.272727-116.363636-279.272727-301.614545l-46.545455-370.501818H95.185455a22.667636 22.667636 0 0 1-24.948364-21.876364 24.994909 24.994909 0 0 1 24.948364-25.134545h833.62909a24.994909 24.994909 0 0 1 24.948364 25.134545 22.667636 22.667636 0 0 1-24.948364 21.876364z m-113.058909 0H208.477091l46.545454 350.021818c0 169.425455 87.784727 260.189091 257.163637 260.189091s257.117091-90.763636 257.117091-260.189091l46.545454-350.021818z m-303.755637-179.665455c-73.914182 0-79.127273 41.890909-109.568 90.298182h-65.163636C363.938909-59.112727 392.890182-128 512.186182-128s148.340364 68.887273 174.778182 142.429091h-65.163637c-30.673455-48.407273-35.746909-90.298182-109.568-90.298182z"  horiz-adv-x="1024" />

    
    <glyph glyph-name="location" unicode="&#58892;" d="M494.506667 283.605333a204.586667 204.586667 0 1 0 0 409.173334 204.586667 204.586667 0 0 0 0-409.173334M783.786667 776.106667v0.042666c-159.744 159.786667-418.858667 159.786667-578.602667 0-159.786667-159.829333-159.786667-418.858667 0-578.688l289.28-289.28 289.365333 289.28a409.173333 409.173333 0 0 1 0 578.645334"  horiz-adv-x="1024" />

    
    <glyph glyph-name="error" unicode="&#59242;" d="M828.75 700.8c174.955-174.955 174.955-458.612 0-633.567-174.91-174.91-458.612-174.955-633.568 0-174.91 174.91-174.91 458.658 0 633.568 174.956 174.955 458.658 174.91 633.568 0zM639.992 197.70399999999995c16.79-16.79 43.354-17.107 59.284-1.177 16.066 16.065 15.658 42.72-1.131 59.33l-128.072 128.07 128.162 128.162c16.654 16.654 17.197 43.264 1.086 59.284-16.065 15.975-42.584 15.613-59.329-1.132L511.876 442.124l-127.98 127.98c-16.655 16.745-43.265 17.197-59.375 1.268-15.975-15.975-15.477-42.72 1.176-59.284L453.77 384.017 325.607 255.85500000000002c-16.609-16.608-17.106-43.173-0.996-59.193 16.111-16.111 42.63-15.568 59.239 1.04L511.966 325.82000000000005l128.026-128.116z"  horiz-adv-x="1024" />

    
    <glyph glyph-name="location-outline" unicode="&#58893;" d="M723.285333 225.745455L477.866667-19.673212000000035h50.144969l-247.994181 247.994182a403.48703 403.48703 0 0 0-15.701334 14.832485c-131.878788 131.878788-131.878788 345.677576 0 477.525333s345.677576 131.878788 477.525334 0c131.878788-131.878788 131.878788-345.677576 0-477.525333a335.437576 335.437576 0 0 0-16.849455-15.763394l-1.737697-1.613576z m48.407273-51.789576c6.981818 6.081939 13.746424 12.443152 20.355879 19.021576 159.557818 159.557818 159.557818 418.288485 0 577.846303s-418.288485 159.557818-577.846303 0c-159.557818-159.557818-159.557818-418.288485 0-577.846303 5.585455-5.585455 11.29503-10.984727 17.159757-16.197819l271.608243-271.670303 268.753454 268.846546zM370.129455 376.583758a188.136727 188.136727 0 1 1 266.022787 266.084848 188.136727 188.136727 0 0 1-266.022787-266.084848z m50.144969 50.144969a117.170424 117.170424 0 1 0 165.701818 165.732849 117.170424 117.170424 0 0 0-165.701818-165.732849z"  horiz-adv-x="1024" />

    
    <glyph glyph-name="loading" unicode="&#58927;" d="M503.296 166.39999999999998c-23.552 0-42.496-18.944-42.496-42.496v-124.416c0-23.552 18.944-42.496 42.496-42.496 23.552 0 42.496 18.944 42.496 42.496v124.416c0 23.04-18.944 42.496-42.496 42.496z m0 645.12c-23.552 0-42.496-18.944-42.496-42.496v-124.416c0-23.552 18.944-42.496 42.496-42.496 23.552 0 42.496 18.944 42.496 42.496V769.024c0 23.552-18.944 42.496-42.496 42.496zM285.696 384c0 23.552-18.944 42.496-42.496 42.496H119.296c-23.552 0-42.496-18.944-42.496-42.496 0-23.552 18.944-42.496 42.496-42.496h123.904c23.552 0 42.496 18.944 42.496 42.496z m619.008 42.496h-123.904c-23.552 0-42.496-18.944-42.496-42.496 0-23.552 18.944-42.496 42.496-42.496h123.904c23.552 0 42.496 18.944 42.496 42.496 0 23.552-18.944 42.496-42.496 42.496zM261.632 686.08c-16.384 16.896-43.52 16.896-60.416 0-8.192-8.192-12.288-19.456-12.288-30.208 0-10.752 4.096-22.016 12.288-30.208L288.768 537.6c16.384-16.896 43.52-16.896 60.416 0 16.384 16.896 16.384 43.52 0 60.416L261.632 686.08z m473.088-456.192c-16.384 16.896-43.52 16.896-60.416 0-8.192-8.192-12.288-19.456-12.288-30.208 0-10.752 4.096-22.016 12.288-30.208l87.552-88.064c16.384-16.896 43.52-16.896 60.416 0 16.384 16.896 16.384 43.52 0 60.416l-87.552 88.064z m-18.944 306.176l87.552 88.064c16.384 16.896 16.384 43.52 0 60.416-16.384 16.896-43.52 16.896-60.416 0L655.36 595.9680000000001c-8.192-8.192-12.288-19.456-12.288-30.208 0-10.752 4.096-22.016 12.288-30.208 16.896-16.384 43.52-16.384 60.416 0.512z m-445.44-308.224l-87.552-88.064c-8.192-8.192-12.288-19.456-12.288-30.208 0-10.752 4.096-22.016 12.288-30.208 16.384-16.896 43.52-16.896 60.416 0l87.552 88.064c16.384 16.896 16.384 43.52 0 60.416-16.896 16.384-43.52 16.384-60.416 0z"  horiz-adv-x="1024" />

    
    <glyph glyph-name="phone" unicode="&#58895;" d="M217.856 813.952l-135.808-316.8 543.04-543.04 316.8 135.68L753.28 278.4l-150.784-75.392-271.488 271.424L406.4 625.28z"  horiz-adv-x="1024" />

    
    <glyph glyph-name="picture" unicode="&#58897;" d="M64 0V768h896v-768H64z m64 128l192 192 116.352-116.352L640 448l256-307.2V704H128v-576z m224 480a96 96 0 1 0-0.064-192.064A96 96 0 0 0 352 608z"  horiz-adv-x="1024" />

    
    <glyph glyph-name="share" unicode="&#58898;" d="M679.872 547.2a128 128 0 1 1-33.92 54.272L344.064 412.8a128 128 0 1 1 16.64-166.272l279.936-104.96a128 128 0 1 1 22.464 59.904L383.36 306.432a129.28 129.28 0 0 1-5.184 52.16l301.76 188.608z"  horiz-adv-x="1024" />

    
    <glyph glyph-name="star-on" unicode="&#58896;" d="M512 89.024L220.864-64l55.616 324.16L40.96 489.728l325.504 47.36L512 832l145.536-294.976 325.504-47.296-235.52-229.568L803.2-64z"  horiz-adv-x="1024" />

    
    <glyph glyph-name="tickets" unicode="&#58884;" d="M128 832h768v-896H128V832z m64-64v-768h640V768H192z m64-192h512v-64H256V576z m0-192h512v-64H256V384z m0-192h512v-64H256v64z"  horiz-adv-x="1024" />

    
    <glyph glyph-name="goods" unicode="&#58967;" d="M284.44 630.52v26.07q2.37 101.93 66.37 169.49Q414.81 893.63 512 896q97.19-2.37 161.19-69.92t66.37-169.49v-26.07h189.63l75.85-758.52H18.96l75.85 758.52h189.63z m75.86 0h303.4v26.07q-1.18 69.93-44.44 116.15T512 820.15q-64-1.19-107.26-47.41-43.26-46.22-44.44-116.15v-26.07z m-75.86-75.85H163.56l-60.45-606.82h817.78l-60.45 606.82H739.56v-151.71H663.7V554.6700000000001H360.3v-151.71h-75.86V554.6700000000001z"  horiz-adv-x="1024" />

    
    <glyph glyph-name="news" unicode="&#58970;" d="M438.86 822.86v-73.15H73.14v-731.42h804.57V310.86h73.15v-365.72H0V822.86h438.86zM804.57 896Q898.29 893.71 960 832q61.71-61.71 64-155.43-2.29-93.71-64-155.43-61.71-61.71-155.43-64-93.71 2.29-155.43 64-61.72 61.72-64 155.43 2.29 93.72 64 155.43Q710.86 893.71 804.57 896z m0-73.14Q742.86 821.71 701.14 780q-41.72-41.71-42.86-103.43 1.14-61.71 42.86-103.43 41.72-41.71 103.43-42.85 61.72 1.14 103.43 42.85 41.71 41.72 42.86 103.43Q949.71 738.29 908 780q-41.71 41.71-103.43 42.86z"  horiz-adv-x="1024" />

    
    <glyph glyph-name="view" unicode="&#58977;" d="M512 896q242-22 376-176t136-176q-2-22-136-176T512 192q-242 22-376 176T0 544q2 22 136 176T512 896z m0-64Q342 821 229 717.5T75 544q41-70 154-173.5T512 256q170 11 283 114.5T949 544q-41 70-154 173.5T512 832z m0-64q95-2 158.5-65.5T736 544q-2-95-65.5-158.5T512 320q-95 2-158.5 65.5T288 544q2 95 65.5 158.5T512 768z m0-64q-68-2-113-47t-47-113q2-68 47-113t113-47q68 2 113 47t47 113q-2 68-47 113t-113 47z"  horiz-adv-x="1024" />

    
    <glyph glyph-name="more-outline" unicode="&#58924;" d="M221 417c-18.215 0-33-14.785-33-33 0-18.22 14.78-33 33-33 18.232 0 33 14.77 33 33 0 18.224-14.773 33-33 33z m0 42c41.432 0 75-33.59 75-75 0-41.421-33.568-75-75-75-41.41 0-75 33.579-75 75 0 41.41 33.59 75 75 75z m291-42c-18.215 0-33-14.785-33-33 0-18.22 14.78-33 33-33 18.232 0 33 14.77 33 33 0 18.224-14.773 33-33 33z m0 42c41.432 0 75-33.59 75-75 0-41.421-33.568-75-75-75-41.41 0-75 33.579-75 75 0 41.41 33.59 75 75 75z m291-42c-18.215 0-33-14.785-33-33 0-18.22 14.78-33 33-33 18.232 0 33 14.77 33 33 0 18.224-14.773 33-33 33z m0 42c41.432 0 75-33.59 75-75 0-41.421-33.568-75-75-75-41.41 0-75 33.579-75 75 0 41.41 33.59 75 75 75z"  horiz-adv-x="1024" />

    
    <glyph glyph-name="picture-outline" unicode="&#59044;" d="M64 0V768h896v-768H64z m64 128l192 192 116-116L640 448l256-307.008V704H128v-576z m358.016 35.008l-44.992-54.016-120.992 120L154.016 64h723.008l-236.992 284zM368 608q30.016 0 56-15.008t40.992-41.504 15.008-56-15.008-55.488-40.992-40.992T368 384q-48 0.992-79.488 32.512T256 496q0.992 48 32.512 79.488T368 608z m0-64q-20-0.992-33.504-14.496t-13.504-33.504 13.504-33.504 33.504-13.504 33.504 13.504 13.504 33.504-13.504 33.504T368 544z"  horiz-adv-x="1024" />

    
    <glyph glyph-name="phone-outline" unicode="&#59250;" d="M64 479.008L607.008-64l316.992 136-204 203.008-90.016-44.992-272 272 44.992 90.016-203.008 204z m76 14.976l80.992 190.016 104.992-104-46.016-91.008L616.96 152l91.008 46.016 104-104.992-190.016-80.992zM512 576V640q108.992-3.008 180.992-75.008T768 384h-64q-2.016 82.016-56 136T512 576z m0 192V832q190.016-4.992 316.512-131.488T960 384h-64q-4 163.008-112.512 271.488T512 768z"  horiz-adv-x="1024" />

    
    <glyph glyph-name="sold-out" unicode="&#59253;" d="M704 608h160l22.016-224h-64l-16 160H704v-128h-64v128h-256v-128h-64v128H217.984L166.976 32h344.992v-64h-416l64 640h160v22.016q2.016 86.016 56 143.008t136 59.008q82.016-2.016 136-59.008t56-143.008V608z m-64 0v22.016q-0.992 59.008-37.504 98.016T512 768.032q-54.016-0.992-90.496-40T384 630.0160000000001V608h256z m224-454.016l44.992-44.992L736-64l-172.992 172.992L608 153.98400000000004l96-96V320h64v-262.016z"  horiz-adv-x="1024" />

    
    <glyph glyph-name="star-off" unicode="&#59258;" d="M512 165.984l200.992-104.992-39.008 223.008 163.008 158.016-224.992 32.992L512 678.016l-100-203.008-224.992-32.992 163.008-158.016-39.008-223.008z m0-76.992L220.992-64l55.008 324-235.008 230.016 324.992 47.008L512 832.032l146.016-295.008 324.992-47.008-235.008-230.016L803.008-64z"  horiz-adv-x="1024" />

    
    <glyph glyph-name="nav_list" unicode="&#58976;" d="M61.786 675.61c-33.153 0-60.029 26.875-60.029 60.028s26.876 60.029 60.029 60.029h900.428c33.153 0 60.029-26.876 60.029-60.029 0-33.153-26.876-60.028-60.029-60.028H61.786z m0-240.115c-33.153 0-60.029 26.876-60.029 60.029 0 33.153 26.876 60.028 60.029 60.028h900.428c33.153 0 60.029-26.875 60.029-60.028s-26.876-60.029-60.029-60.029H61.786z m0-240.114c-33.153 0-60.029 26.876-60.029 60.029 0 33.152 26.876 60.028 60.029 60.028h900.428c33.153 0 60.029-26.876 60.029-60.028 0-33.153-26.876-60.029-60.029-60.029H61.786z m0-240.114c-33.153 0-60.029 26.875-60.029 60.028s26.876 60.029 60.029 60.029h900.428c33.153 0 60.029-26.876 60.029-60.029 0-33.153-26.876-60.028-60.029-60.028H61.786z"  horiz-adv-x="1024" />

    
    <glyph glyph-name="nav_operationMenual" unicode="&#58978;" d="M532.18 641.212v-172.06c0-21.18-24.255-33.198-41.108-20.367l-55.294 42.099-55.295-42.1c-16.852-12.83-41.107-0.812-41.107 20.369V641.212h-12.94c-34.184 0-61.903-27.719-61.903-61.904v-322.12c15.706 9.381 34.07 14.772 53.69 14.772h346.916c19.619 0 37.98-5.39 53.685-14.768V598.5450000000001c0 23.564-19.103 42.667-42.667 42.667H532.18zM213.333 167.04999999999995V579.308c0 62.462 50.642 113.104 113.104 113.104h349.72c51.841 0 93.867-42.026 93.867-93.867v-430.774l0.002-0.722v-79.287c0-14.139-11.461-25.6-25.6-25.6H318.223c-57.927 0-104.887 46.96-104.887 104.887z m505.493-0.002c0 29.656-24.044 53.71-53.687 53.71H318.223c-29.643 0-53.687-24.054-53.687-53.71 0-29.65 24.037-53.687 53.687-53.687h400.603v53.687zM480.98 641.2090000000001h-90.404v-120.39l29.694 22.609a25.6 25.6 0 0 0 31.016 0l29.694-22.609V641.21z"  horiz-adv-x="1024" />

    
    <glyph glyph-name="nav_historyRecord" unicode="&#58979;" d="M310.623 580.267h30.71c14.139 0 25.6-11.462 25.6-25.6 0-14.139-11.461-25.6-25.6-25.6h-102.4c-14.138 0-25.6 11.461-25.6 25.6v102.4c0 14.138 11.462 25.6 25.6 25.6 14.139 0 25.6-11.462 25.6-25.6v-51.173C326.822 675.544 416.247 716.8 512.585 716.8c183.8 0 332.8-149 332.8-332.8s-149-332.8-332.8-332.8c-151.418 0-282.61 101.982-321.395 246.128-3.674 13.652 4.416 27.698 18.07 31.372 13.652 3.673 27.698-4.417 31.372-18.07C273.437 188.707 384.465 102.39999999999998 512.585 102.39999999999998c155.523 0 281.6 126.077 281.6 281.6 0 155.523-126.077 281.6-281.6 281.6-77.534 0-149.728-31.544-201.962-85.333zM537.6 376.75l60.281-1.29c14.135-0.303 25.35-12.007 25.046-26.142-0.302-14.135-12.006-25.35-26.142-25.046l-85.333 1.826c-13.922 0.298-25.052 11.67-25.052 25.594V503.467c0 14.138 11.462 25.6 25.6 25.6 14.138 0 25.6-11.462 25.6-25.6V376.75z"  horiz-adv-x="1024" />

    
    <glyph glyph-name="printer" unicode="&#58980;" d="M331.776 145.067c0-24.13 19.561-43.691 43.69-43.691h273.067c24.13 0 43.691 19.561 43.691 43.69v43.691H331.776v-43.69zM307.2 237.909h409.6c13.573 0 24.576-11.003 24.576-24.576v-68.266c0-51.276-41.567-92.843-92.843-92.843H375.467c-51.276 0-92.843 41.567-92.843 92.843v68.266c0 13.573 11.003 24.576 24.576 24.576zM238.933 510.976h546.134c13.573 0 24.576-11.003 24.576-24.576v-273.067c0-13.573-11.003-24.576-24.576-24.576H238.933c-13.573 0-24.576 11.003-24.576 24.576V486.4c0 13.573 11.003 24.576 24.576 24.576z m24.576-273.067h496.982V461.824H263.509v-223.915z m419.158 111.958c-18.852 0-34.134 15.282-34.134 34.133 0 18.851 15.282 34.133 34.134 34.133 18.851 0 34.133-15.282 34.133-34.133 0-18.851-15.282-34.133-34.133-34.133zM331.776 598.357v-87.381h360.448v87.381H331.776zM307.2 647.51h409.6c13.573 0 24.576-11.003 24.576-24.576V486.4c0-13.573-11.003-24.576-24.576-24.576H307.2c-13.573 0-24.576 11.003-24.576 24.576V622.933c0 13.573 11.003 24.576 24.576 24.576z"  horiz-adv-x="1024" />

    
    <glyph glyph-name="nav_skin" unicode="&#58981;" d="M406.257 631.4H397.4c-16.06 0-31.317-4.913-44.148-13.947a25.6 25.6 0 0 0-1.938-1.238l-163.442-94.363a8.533 8.533 0 0 1-3.123-11.657l34.133-59.12a8.533 8.533 0 0 1 11.657-3.124l51.661 29.827c17.067 9.853 38.4-2.464 38.4-22.17V145a8.533 8.533 0 0 1 8.533-8.533H704.6a8.533 8.533 0 0 1 8.533 8.533V453.434c0 19.707 21.334 32.024 38.4 22.17l42.701-24.653a8.533 8.533 0 0 1 11.657 3.123l34.133 59.121a8.533 8.533 0 0 1-3.123 11.657l-144.7 83.542a25.6 25.6 0 0 0-4.372 3.185c-14.033 12.693-32.175 19.821-51.496 19.821h-8.856c-4.358-57.28-52.215-102.4-110.61-102.4-58.396 0-106.253 45.12-110.61 102.4zM256.139 403.61c-28.57-16.494-65.102-6.706-81.597 21.864l-34.134 59.121c-16.494 28.57-6.706 65.102 21.864 81.597l162.5 93.82C345.957 674.63 371.113 682.6 397.4 682.6h17.067c23.564 0 42.666-19.103 42.666-42.667 0-32.99 26.744-59.733 59.734-59.733s59.733 26.744 59.733 59.733c0 23.564 19.103 42.667 42.667 42.667h17.066c31.161 0 60.638-11.21 83.693-31.15l142.475-82.258c28.57-16.495 38.359-53.027 21.864-81.597l-34.133-59.12c-16.495-28.57-53.028-38.36-81.598-21.864l-4.3 2.483V145c0-32.99-26.744-59.733-59.734-59.733H329.133c-32.99 0-59.733 26.743-59.733 59.733V411.267l-13.261-7.656z"  horiz-adv-x="1024" />

    
    <glyph glyph-name="nav_message" unicode="&#58982;" d="M718 222.89v49.153h32.933c24.13 0 43.691 19.56 43.691 43.69V554.6669999999999c0 24.13-19.561 43.69-43.69 43.69H409.6c-24.13 0-43.69-19.56-43.69-43.69V545h-49.153v9.667c0 51.275 41.567 92.842 92.843 92.842h341.333c51.276 0 92.843-41.567 92.843-92.842v-238.934c0-51.275-41.567-92.842-92.843-92.842H718zM305.799 64.40499999999997c-16.346-8.243-35.642 3.638-35.642 21.944v34.186c-49.93 1.538-89.933 42.496-89.933 92.798V452.267c0 51.275 41.567 92.842 92.843 92.842h375.466c51.276 0 92.843-41.567 92.843-92.842v-238.934c0-51.275-41.567-92.842-92.843-92.842H417.017L305.8 64.40499999999997z m94.306 102.605a24.576 24.576 0 0 0 11.066 2.633h237.362c24.13 0 43.691 19.56 43.691 43.69V452.267c0 24.13-19.561 43.69-43.69 43.69H273.066c-24.13 0-43.691-19.56-43.691-43.69v-238.934c0-24.13 19.561-43.69 43.69-43.69h21.667c13.573 0 24.576-11.003 24.576-24.576v-18.8l80.796 40.743z m-69.327 136.784c-18.852 0-34.134 15.282-34.134 34.133 0 18.852 15.282 34.134 34.134 34.134 18.851 0 34.133-15.282 34.133-34.134 0-18.851-15.282-34.133-34.133-34.133z m136.533 0c-18.851 0-34.133 15.282-34.133 34.133 0 18.852 15.282 34.134 34.133 34.134 18.851 0 34.133-15.282 34.133-34.134 0-18.851-15.282-34.133-34.133-34.133z m136.533 0c-18.851 0-34.133 15.282-34.133 34.133 0 18.852 15.282 34.134 34.133 34.134 18.852 0 34.134-15.282 34.134-34.134 0-18.851-15.282-34.133-34.134-34.133z"  horiz-adv-x="1024" />

    
    <glyph glyph-name="mobile-phone" unicode="&#58984;" d="M224 761.608C224 800.485 255.526 832 294.402 832h467.196C800.478 832 832 800.488 832 761.608v-755.216C832-32.485000000000014 800.474-64 761.598-64H294.402C255.522-64 224-32.488000000000056 224 6.392000000000053V761.608z m64 0v-755.216a6.396 6.396 0 0 1 6.402-6.392h467.196c3.535 0 6.402 2.866 6.402 6.392V761.608a6.396 6.396 0 0 1-6.402 6.392H294.402c-3.535 0-6.402-2.866-6.402-6.392z m84.571-75.063H683.43v-453.818H372.57V686.545z m116.572-567.272c0 20.886 16.935 37.818 37.818 37.818h2.078c20.886 0 37.818-16.927 37.818-37.818 0-20.887-16.935-37.818-37.818-37.818h-2.078c-20.886 0-37.818 16.927-37.818 37.818z"  horiz-adv-x="1024" />

    
    <glyph glyph-name="login_sercet" unicode="&#58985;" d="M320 576c0 106.039 85.961 192 192 192s192-85.961 192-192h64.005C803.35 576 832 547.342 832 511.996v-447.992C832 28.658000000000015 803.348 0 768.005 0h-512.01C220.65 0 192 28.658000000000015 192 64.00400000000002V511.996C192 547.342 220.652 576 255.995 576H320z m320 0c0 70.692-57.308 128-128 128-70.692 0-128-57.308-128-128h256zM255.995 64h512.01c-0.004 0-0.004 149.333 0 448h-512.01c0.004 0 0.004-149.333 0-448zM512 224c-35.346 0-64 28.654-64 64 0 35.346 28.654 64 64 64 35.346 0 64-28.654 64-64 0-35.346-28.654-64-64-64z"  horiz-adv-x="1024" />

    
    <glyph glyph-name="f_btn_fanhui" unicode="&#58983;" d="M278.851 661.3679999999999h311.796C775.857 661.3679999999999 926 511.3 926 326.18399999999997 926 141.067 775.857-9 590.647-9H382.222c-32.684 0-59.18 26.482-59.18 59.15s26.496 59.15 59.18 59.15h208.425c119.842 0 216.993 97.102 216.993 216.884 0 119.781-97.151 216.884-216.993 216.884h-323.32l79.18-76.305c23.523-22.669 24.205-60.123 1.525-83.657-22.68-23.535-60.135-24.236-83.658-1.568L145.28 496.307c-54.887 52.893-56.48 140.287-3.559 195.2 0.59 0.613 1.186 1.22 1.788 1.821L254.9 804.718c23.11 23.11 60.572 23.12 83.671 0.02 23.1-23.099 23.09-60.56-0.021-83.671l-59.699-59.7z"  horiz-adv-x="1024" />

    
    <glyph glyph-name="edit-outline" unicode="&#58986;" d="M846.826 470.863c0 32.633 26.454 59.087 59.087 59.087S965 503.496 965 470.863v-354.724C965 13.889999999999986 882.11-69 779.86-69H244.14C141.89-69 59 13.889999999999986 59 116.13999999999999V651.86C59 754.11 141.89 837 244.14 837h354.723c32.633 0 59.087-26.454 59.087-59.087s-26.454-59.087-59.087-59.087H244.139c-36.984 0-66.965-29.981-66.965-66.965v-535.722c0-36.984 29.981-66.965 66.965-66.965h535.722c36.984 0 66.965 29.981 66.965 66.965V470.863zM831.376 818.0699999999999c22.178 23.938 59.563 25.365 83.5 3.187 23.94-22.178 25.366-59.563 3.188-83.501L525.043 313.54200000000003c-22.178-23.938-59.563-25.365-83.5-3.187-23.939 22.178-25.366 59.562-3.188 83.5L831.376 818.0699999999999z"  horiz-adv-x="1024" />

    
    <glyph glyph-name="transform" unicode="&#58987;" d="M743.41 605.174l-45.28 58.668c-19.95 25.847-15.138 62.95 10.747 82.87 25.885 19.92 63.041 15.114 82.99-10.733l118.72-153.824c29.984-38.849 2.25-95.155-46.869-95.155H161.173C128.493 487 102 513.454 102 546.087c0 32.632 26.492 59.087 59.173 59.087h582.236zM321.667 106.048c19.176-26.483 13.299-63.531-13.127-82.749-26.427-19.218-63.395-13.327-82.57 13.156l-112.594 155.5c-28.36 39.168-0.44 94.045 47.848 94.045H860.881C893.53 286 920 259.47400000000005 920 226.75199999999995c0-32.721-26.469-59.247-59.12-59.247H277.169l44.5-61.457z"  horiz-adv-x="1024" />

    
    <glyph glyph-name="sort-up" unicode="&#58988;" d="M439.048 573.3330000000001c-26.483-19.176-63.531-13.299-82.749 13.127-19.218 26.427-13.327 63.395 13.156 82.57l155.5 112.594c39.168 28.36 94.045 0.44 94.045-47.848V34.11900000000003C619 1.4700000000000273 592.474-25 559.752-25c-32.721 0-59.247 26.469-59.247 59.12V617.831l-61.457-44.5z"  horiz-adv-x="1024" />

    
    <glyph glyph-name="setting" unicode="&#58989;" d="M348.736 707.556L166.209 391.137l182.764-316.556 365.291-0.137 182.527 316.419-182.764 316.556-365.291 0.137zM314.558 825.864l433.558-0.163c21.122-0.008 40.644-11.289 51.212-29.593l216.92-375.716c10.568-18.304 10.576-40.851 0.022-59.147L799.632-14.309999999999945a59.064 59.064 0 0 0-51.19-29.555l-433.558 0.163c-21.122 0.008-40.644 11.289-51.212 29.593L46.752 361.60799999999995c-10.568 18.304-10.576 40.851-0.022 59.147L263.368 796.31a59.064 59.064 0 0 0 51.19 29.555zM531.5 386.5m-78.5 0a78.5 78.5 0 1 1 157 0 78.5 78.5 0 1 1-157 0Z"  horiz-adv-x="1024" />

    
    <glyph glyph-name="sort-down" unicode="&#58990;" d="M532.674 152.09000000000003l58.668 45.28c25.847 19.95 62.95 15.138 82.87-10.747 19.92-25.885 15.114-63.041-10.733-82.99l-153.824-118.72c-38.849-29.984-95.155-2.25-95.155 46.869V734.327c0 32.68 26.454 59.173 59.087 59.173 32.632 0 59.087-26.492 59.087-59.173v-582.236z"  horiz-adv-x="1024" />

    
    <glyph glyph-name="sort" unicode="&#58991;" d="M731.052 154.59000000000003l58.715 45.28c25.868 19.95 62.999 15.138 82.934-10.747 19.936-25.885 15.127-63.041-10.74-82.99l-153.946-118.72c-38.88-29.984-95.23-2.25-95.23 46.869V736.827c0 32.68 26.475 59.173 59.134 59.173 32.658 0 59.133-26.492 59.133-59.173v-582.236zM231.867 576.136c-26.432-19.194-63.41-13.311-82.59 13.14-19.18 26.45-13.302 63.45 13.131 82.644l155.201 112.695c39.092 28.386 93.863 0.44 93.863-47.892v-700.288c0-32.68-26.475-59.172-59.133-59.172-32.659 0-59.134 26.492-59.134 59.172v584.24l-61.338-44.54z"  horiz-adv-x="1024" />

    
    <glyph glyph-name="delete" unicode="&#58992;" d="M781.174 497.072c0 32.668 26.454 59.15 59.087 59.15s59.087-26.482 59.087-59.15v-435.736c0-102.358-82.89-185.336-185.14-185.336H309.792c-102.25 0-185.139 82.978-185.139 185.336V497.072c0 32.668 26.454 59.15 59.087 59.15s59.087-26.482 59.087-59.15v-435.736c0-37.023 29.981-67.037 66.965-67.037H714.21c36.984 0 66.965 30.014 66.965 67.037V497.072z m-663.087 100.09c-32.633 0-59.087 26.482-59.087 59.15 0 32.667 26.454 59.15 59.087 59.15h787.826c32.633 0 59.087-26.483 59.087-59.15 0-32.668-26.454-59.15-59.087-59.15H118.087z m315.13 173.539c-32.632 0-59.087 26.482-59.087 59.15C374.13 862.517 400.585 889 433.217 889h139.317c32.633 0 59.087-26.482 59.087-59.15 0-32.667-26.454-59.15-59.087-59.15H433.217zM339.108 429.98c0 32.667 26.455 59.15 59.087 59.15 32.633 0 59.087-26.483 59.087-59.15v-276.032c0-32.668-26.454-59.15-59.087-59.15-32.632 0-59.087 26.482-59.087 59.15V429.98z m224.297-4.151c0 32.667 26.454 59.15 59.087 59.15s59.087-26.483 59.087-59.15v-276.032c0-32.668-26.454-59.15-59.087-59.15s-59.087 26.482-59.087 59.15V425.829z"  horiz-adv-x="1024" />

    
    <glyph glyph-name="f_btn_tongji" unicode="&#58993;" d="M512-113c-272.276 0-493 220.724-493 493S239.724 873 512 873s493-220.724 493-493-220.724-493-493-493z m0 118.32c206.93 0 374.68 167.75 374.68 374.68S718.93 754.6800000000001 512 754.6800000000001 137.32 586.9300000000001 137.32 380 305.07 5.32000000000005 512 5.32000000000005zM920.156 420.166c32.617-0.118 58.962-26.666 58.844-59.297-0.119-32.63-26.656-58.987-59.272-58.869l-424.884 1.543C462.31 303.66099999999994 436 330.08000000000004 436 362.626v432.29C436 827.548 462.441 854 495.058 854c32.617 0 59.058-26.453 59.058-59.083v-373.421l366.04-1.33z"  horiz-adv-x="1024" />

    
    <glyph glyph-name="f_btn_xiangqing" unicode="&#58994;" d="M512-113c-272.276 0-493 220.724-493 493S239.724 873 512 873s493-220.724 493-493-220.724-493-493-493z m0 118.32c206.93 0 374.68 167.75 374.68 374.68S718.93 754.6800000000001 512 754.6800000000001 137.32 586.9300000000001 137.32 380 305.07 5.32000000000005 512 5.32000000000005z m-59.424 393.624c0 32.689 26.605 59.188 59.424 59.188s59.424-26.5 59.424-59.188v-229.366c0-32.688-26.605-59.187-59.424-59.187s-59.424 26.499-59.424 59.187V398.944z m67.127 107.607c-32.819 0-59.424 26.605-59.424 59.424 0 32.82 26.605 59.425 59.424 59.425 32.82 0 59.424-26.606 59.424-59.425 0-32.819-26.605-59.424-59.424-59.424z"  horiz-adv-x="1024" />

    
    <glyph glyph-name="btn_back" unicode="&#58995;" d="M494.44 552.064c4.995 0.233 10.02 0.351 15.075 0.351 171.034 0 309.685-134.91 309.685-301.33 0-58.242-16.981-112.623-46.388-158.714-4.934 151.777-125.22 275.237-278.373 290.123v-89.585c0-13-10.831-23.54-24.192-23.54-5.493 0-10.823 1.82-15.113 5.159l-232.856 181.26c-10.433 8.121-12.125 22.935-3.778 33.086a23.877 23.877 0 0 0 3.778 3.677l232.856 181.26c10.433 8.12 25.657 6.475 34.004-3.677 3.432-4.174 5.301-9.36 5.301-14.705v-103.365z"  horiz-adv-x="1024" />

    
    <glyph glyph-name="refresh" unicode="&#58996;" d="M833.152 606.115c10.296 26.336 39.992 39.339 66.328 29.043 26.336-10.297 39.34-39.993 29.043-66.328l-59.516-152.235c-18.502-47.325-87.202-41.705-97.767 7.998C740.52 569.117 599.5 661.439 456.406 631.024c-60.228-12.802-112.781-45.63-150.65-92.81-17.7-22.051-49.925-25.58-71.977-7.88-22.052 17.7-25.58 49.926-7.88 71.978 52.506 65.416 125.66 111.114 209.217 128.874 152.812 32.482 303.664-35.734 384.421-159.897l13.615 34.826z m-606.358-452.6c-10.754-26.152-40.673-38.635-66.825-27.88-26.152 10.754-38.635 40.672-27.88 66.824l62.164 151.172c19.325 46.996 87.916 40.178 97.612-9.702C320.057 188.89 459.446 94.12 603.049 122.03499999999997c60.153 11.692 113.055 43.35 151.7 89.512 18.151 21.682 50.443 24.545 72.125 6.393 21.682-18.151 24.544-50.443 6.393-72.125-53.586-64.008-127.227-108.077-210.68-124.299-153.356-29.81-302.994 41.029-381.572 166.582l-14.221-34.583z"  horiz-adv-x="1024" />

    
    <glyph glyph-name="btn_add" unicode="&#58997;" d="M563.2 435.2H768c28.277 0 51.2-22.923 51.2-51.2 0-28.277-22.923-51.2-51.2-51.2H563.2V128c0-28.277-22.923-51.2-51.2-51.2-28.277 0-51.2 22.923-51.2 51.2V332.8H256c-28.277 0-51.2 22.923-51.2 51.2 0 28.277 22.923 51.2 51.2 51.2h204.8V640c0 28.277 22.923 51.2 51.2 51.2 28.277 0 51.2-22.923 51.2-51.2v-204.8z"  horiz-adv-x="1024" />

    
    <glyph glyph-name="search" unicode="&#58998;" d="M602.253 187.63c-117.706-69.054-271.53-53.082-372.528 47.915-119.969 119.97-119.969 314.477 0 434.446 119.97 119.97 314.478 119.97 434.447 0C778.33 555.8330000000001 783.86 374.17999999999995 680.758 253.48299999999995l125.097-138.507c18.953-20.985 17.306-53.36-3.679-72.314-20.985-18.953-53.361-17.306-72.314 3.679L602.252 187.63z m-10.489 120.323c79.98 79.98 79.98 209.651 0 289.63-79.98 79.98-209.651 79.98-289.63 0-79.98-79.979-79.98-209.65 0-289.63 79.979-79.98 209.65-79.98 289.63 0z"  horiz-adv-x="1024" />

    
    <glyph glyph-name="remove" unicode="&#58999;" d="M512 832C264.64 832 64 631.424 64 384c0-247.36 200.64-448 448-448 247.424 0 448 200.64 448 448 0 247.424-200.576 448-448 448z m222.272-489.216l-444.544 0.064c-23.488-0.064-42.752 18.496-42.752 41.088 0.128 22.656 19.264 41.152 42.88 41.088h444.416c23.616 0.128 42.752-18.432 42.752-41.152 0-22.528-19.008-41.088-42.752-41.088z"  horiz-adv-x="1024" />

    
    <glyph glyph-name="info" unicode="&#59000;" d="M512 832C264.64 832 64 631.36 64 384c0-247.424 200.64-448 448-448 247.488 0 448 200.576 448 448 0 247.36-200.512 448-448 448z m0-294c-26.432 0-48 21.504-48 48s21.568 48 48 48c26.624 0 48-21.504 48-48s-21.376-48-48-48z m48-340c0-26.56-21.376-48-48-48-26.432 0-48 21.44-48 48V422c0 26.56 21.568 48 48 48 26.624 0 48-21.44 48-48v-224z"  horiz-adv-x="1024" />

    
    <glyph glyph-name="circle-close" unicode="&#59001;" d="M828.75 700.8c174.955-174.955 174.955-458.612 0-633.567-174.91-174.91-458.612-174.955-633.568 0-174.91 174.91-174.91 458.658 0 633.568 174.956 174.955 458.658 174.91 633.568 0zM639.992 197.70399999999995c16.79-16.79 43.354-17.107 59.284-1.177 16.066 16.065 15.658 42.72-1.131 59.33l-128.072 128.07 128.162 128.162c16.654 16.654 17.197 43.264 1.086 59.284-16.065 15.975-42.584 15.613-59.329-1.132L511.876 442.124l-127.98 127.98c-16.655 16.745-43.265 17.197-59.375 1.268-15.975-15.975-15.477-42.72 1.176-59.284L453.77 384.017 325.607 255.85500000000002c-16.609-16.608-17.106-43.173-0.996-59.193 16.111-16.111 42.63-15.568 59.239 1.04L511.966 325.82000000000005l128.026-128.116z"  horiz-adv-x="1024" />

    
    <glyph glyph-name="d-caret" unicode="&#59002;" d="M516.163-32.45399999999995a41.3 41.3 0 0 0-0.904-0.902c-16.382-15.871-42.538-15.467-58.422 0.902l-253.184 260.93A41.266 41.266 0 0 0 192 257.211c0 22.8 18.498 41.282 41.316 41.282h506.368a41.333 41.333 0 0 0 28.76-11.643c16.382-15.871 16.786-42.007 0.903-58.376L516.163-32.45399999999995z m-0.032 833.94l253.196-260.94c15.88-16.366 15.486-42.505-0.879-58.384a41.288 41.288 0 0 0-28.752-11.656H233.304c-22.803 0-41.288 18.485-41.288 41.287a41.288 41.288 0 0 0 11.656 28.752L456.87 801.486c15.879 16.365 42.018 16.759 58.383 0.88 0.297-0.29 0.59-0.582 0.88-0.88z"  horiz-adv-x="1024" />

    
    <glyph glyph-name="more" unicode="&#59003;" d="M221 459c41.432 0 75-33.59 75-75 0-41.421-33.568-75-75-75-41.41 0-75 33.579-75 75 0 41.41 33.59 75 75 75z m291 0c41.432 0 75-33.59 75-75 0-41.421-33.568-75-75-75-41.41 0-75 33.579-75 75 0 41.41 33.59 75 75 75z m291 0c41.432 0 75-33.59 75-75 0-41.421-33.568-75-75-75-41.41 0-75 33.579-75 75 0 41.41 33.59 75 75 75z"  horiz-adv-x="1024" />

    
    <glyph glyph-name="warning" unicode="&#59004;" d="M512 832C264.64 832 64 631.36 64 384c0-247.424 200.64-448 448-448 247.488 0 448 200.576 448 448 0 247.36-200.512 448-448 448z m0-704c-26.432 0-48 21.504-48 48s21.568 48 48 48c26.624 0 48-21.504 48-48s-21.376-48-48-48z m48 240c0-26.56-21.376-48-48-48-26.432 0-48 21.44-48 48V592c0 26.56 21.568 48 48 48 26.624 0 48-21.44 48-48v-224z"  horiz-adv-x="1024" />

    
    <glyph glyph-name="question" unicode="&#59005;" d="M512 832C264.64 832 64 631.36 64 384c0-247.424 200.64-448 448-448 247.488 0 448 200.576 448 448 0 247.36-200.512 448-448 448z m-79.035-362.147C432.103 449.354 415.211 433 394.5 433c-20.711 0-37.603 16.354-38.465 36.853H356c0 0.397 0 0.793 0.003 1.189a39.288 39.288 0 0 0 0.01 1.493c0.501 49.037 14.8 87.58 44.183 115.628C429.434 616.721 468.871 631 519.186 631c44.197 0 80.234-11.56 107.432-36.037 27.198-23.798 40.797-56.436 40.797-97.912 0-33.997-8.84-61.875-25.158-83.633-6.12-6.8-25.838-25.158-58.475-53.716-12.24-10.2-21.079-21.758-27.198-33.997-2.07-4.141-3.905-10.127-5.502-17.956-4.247-20.812-22.554-35.76-43.794-35.76-19.478 0-35.267 15.79-35.267 35.267 0 1.76 0.131 3.519 0.394 5.26 2.488 16.495 5.613 28.371 9.375 35.627 8.84 18.358 35.357 46.916 79.553 86.353l8.16 9.52c12.239 14.958 18.358 31.277 18.358 48.275 0 22.438-6.8 40.117-19.038 53.036-12.92 12.919-31.278 19.038-54.396 19.038-29.917 0-50.996-8.839-63.915-27.877-11.559-15.64-17.489-38.077-17.489-66.635h-0.058zM512 128c-26.432 0-48 21.504-48 48s21.568 48 48 48c26.624 0 48-21.504 48-48s-21.376-48-48-48z"  horiz-adv-x="1024" />

    
    <glyph glyph-name="caret-bottom" unicode="&#59006;" d="M495.929 83.84100000000001L128.762 470.234c-21.806 22.947-20.871 59.218 2.088 81.012A57.348 57.348 0 0 0 170.333 567h734.334C936.331 567 962 541.344 962 509.696a57.288 57.288 0 0 0-15.762-39.462L579.071 83.84000000000003c-21.805-22.947-58.095-23.882-81.054-2.087a57.318 57.318 0 0 0-2.088 2.087z"  horiz-adv-x="1024" />

    
    <glyph glyph-name="caret-left" unicode="&#59007;" d="M242.841 346.929l386.393-367.167c22.947-21.806 59.218-20.871 81.012 2.088A57.348 57.348 0 0 1 726 21.33299999999997V755.667C726 787.331 700.344 813 668.696 813a57.288 57.288 0 0 1-39.462-15.762L242.84 430.071c-22.947-21.805-23.882-58.095-2.087-81.054 0.677-0.714 1.374-1.41 2.087-2.088z"  horiz-adv-x="1024" />

    
    <glyph glyph-name="circle-plus" unicode="&#59008;" d="M512 832C264.64 832 64 631.424 64 384c0-247.36 200.64-448 448-448 247.424 0 448 200.64 448 448 0 247.424-200.576 448-448 448z m222.272-489.216l-181.12 0.064v-181.184c0-23.488-18.368-42.624-41.152-42.624-22.72-0.064-41.152 19.072-41.152 42.56V342.84799999999996h-181.12c-23.488-0.064-42.752 18.496-42.752 41.088 0.128 22.656 19.264 41.152 42.88 41.088h180.992V606.2080000000001c0 23.68 18.496 42.688 41.152 42.752 22.72 0.064 41.152-19.136 41.152-42.688v-181.248h181.12c23.616 0.128 42.752-18.432 42.752-41.152 0-22.528-19.008-41.088-42.752-41.088z"  horiz-adv-x="1024" />

    
    <glyph glyph-name="circle-check" unicode="&#59009;" d="M460.418 319.78200000000004l-96.52 96.52c-16.012 16.011-41.972 16.011-57.983 0-16.012-16.012-16.012-41.972 0-57.983L431.78 232.45399999999995c16.011-16.012 41.97-16.012 57.982 0a41.306 41.306 0 0 1 4.188 4.894l248.957 248.957c16.011 16.012 16.011 41.972 0 57.983-16.012 16.012-41.972 16.012-57.983 0L460.418 319.78200000000004zM512 832c247.488 0 448-200.64 448-448 0-247.424-200.512-448-448-448-247.36 0-448 200.576-448 448C64 631.36 264.64 832 512 832z"  horiz-adv-x="1024" />

    
    <glyph glyph-name="caret-right" unicode="&#59010;" d="M780.159 346.929L393.766-20.238000000000056c-22.947-21.806-59.218-20.871-81.012 2.088A57.348 57.348 0 0 0 297 21.33299999999997V755.667C297 787.331 322.656 813 354.304 813a57.288 57.288 0 0 0 39.462-15.762L780.16 430.071c22.947-21.805 23.882-58.095 2.087-81.054a57.318 57.318 0 0 0-2.087-2.088z"  horiz-adv-x="1024" />

    
    <glyph glyph-name="caret-top" unicode="&#59011;" d="M495.929 692.159L128.762 305.76599999999996c-21.806-22.947-20.871-59.218 2.088-81.012A57.348 57.348 0 0 1 170.333 209h734.334C936.331 209 962 234.65599999999995 962 266.304a57.288 57.288 0 0 1-15.762 39.462L579.071 692.16c-21.805 22.947-58.095 23.882-81.054 2.087a57.318 57.318 0 0 1-2.088-2.087z"  horiz-adv-x="1024" />

    
    <glyph glyph-name="a_page_l" unicode="&#59012;" d="M286.744 814c39.588 0 71.68-32.092 71.68-71.68v-716.64c0-39.588-32.092-71.68-71.68-71.68h-0.064c-39.588 0-71.68 32.092-71.68 71.68V742.3199999999999C215 781.908 247.092 814 286.68 814h0.064z m89.542-466.076a57.352 57.352 0 0 0-2.09 2.089c-21.82 22.96-20.884 59.248 2.09 81.054L763.122 798.238A57.389 57.389 0 0 0 802.63 814c31.685 0 57.37-25.669 57.37-57.333v-734.342a57.314 57.314 0 0 0-15.772-39.483c-21.82-22.96-58.132-23.894-81.106-2.089L376.286 347.924z"  horiz-adv-x="1024" />

    
    <glyph glyph-name="double_right" unicode="&#59013;" d="M996.148 346.929l-386.62-367.167c-22.962-21.806-59.254-20.871-81.061 2.088a57.33 57.33 0 0 0-15.763 39.483V755.667c0 31.664 25.67 57.333 57.337 57.333a57.34 57.34 0 0 0 39.486-15.762l386.621-367.167c22.961-21.805 23.896-58.095 2.089-81.054a57.335 57.335 0 0 0-2.089-2.088z m-501.704 0l-386.62-367.167c-22.961-21.806-59.254-20.871-81.061 2.088A57.33 57.33 0 0 0 11 21.33299999999997V755.667C11 787.331 36.67 813 68.338 813a57.34 57.34 0 0 0 39.486-15.762l386.62-367.167c22.962-21.805 23.897-58.095 2.09-81.054a57.335 57.335 0 0 0-2.09-2.088z"  horiz-adv-x="1024" />

    
    <glyph glyph-name="a_page_r" unicode="&#59014;" d="M698.409 347.924l-386.593-367.17c-22.959-21.806-59.248-20.871-81.054 2.088A57.333 57.333 0 0 0 215 22.325000000000045V756.667C215 788.33 240.669 814 272.333 814a57.333 57.333 0 0 0 39.483-15.762l386.593-367.17c22.959-21.807 23.894-58.096 2.088-81.055a57.333 57.333 0 0 0-2.088-2.089zM788.333 814C827.913 814 860 781.914 860 742.333v-716.666c0-39.58-32.086-71.667-71.667-71.667-39.58 0-71.666 32.086-71.666 71.667V742.333c0 39.58 32.086 71.667 71.666 71.667z"  horiz-adv-x="1024" />

    
    <glyph glyph-name="a_double_u" unicode="&#59015;" d="M549.075-100.12900000000002a57.335 57.335 0 0 0-2.089-2.088c-22.961-21.806-59.253-20.87-81.06 2.088L98.726 286.46000000000004a57.33 57.33 0 0 0-15.763 39.482c0 31.664 25.671 57.333 57.338 57.333h734.396a57.34 57.34 0 0 0 39.486-15.762c22.961-21.805 23.896-58.094 2.089-81.053L549.075-100.13z m0 501.704a57.334 57.334 0 0 0-2.089-2.088c-22.961-21.806-59.253-20.871-81.06 2.088L98.726 788.163a57.33 57.33 0 0 0-15.763 39.483c0 31.664 25.671 57.333 57.338 57.333h734.396a57.34 57.34 0 0 0 39.486-15.762c22.961-21.805 23.896-58.094 2.089-81.054L549.075 401.575z"  horiz-adv-x="1024" />

    
    <glyph glyph-name="a_double_d" unicode="&#59016;" d="M549.075 867.129a57.335 57.335 0 0 1-2.089 2.088c-22.961 21.806-59.253 20.87-81.06-2.088L98.726 480.54a57.33 57.33 0 0 1-15.763-39.482c0-31.664 25.671-57.333 57.338-57.333h734.396a57.34 57.34 0 0 1 39.486 15.762c22.961 21.805 23.896 58.094 2.089 81.053L549.075 867.13z m0-501.704a57.334 57.334 0 0 1-2.089 2.088c-22.961 21.806-59.253 20.871-81.06-2.088L98.726-21.16300000000001a57.33 57.33 0 0 1-15.763-39.483c0-31.664 25.671-57.333 57.338-57.333h734.396a57.34 57.34 0 0 1 39.486 15.762c22.961 21.805 23.896 58.094 2.089 81.054L549.075 365.42499999999995z"  horiz-adv-x="1024" />

    
    <glyph glyph-name="double_left" unicode="&#59017;" d="M27.852 346.929a57.335 57.335 0 0 0-2.089 2.088c-21.807 22.96-20.872 59.249 2.089 81.054l386.62 367.167A57.34 57.34 0 0 0 453.96 813c31.666 0 57.337-25.669 57.337-57.333v-734.334a57.33 57.33 0 0 0-15.763-39.483c-21.807-22.959-58.1-23.894-81.06-2.088L27.852 346.929z m501.704 0a57.335 57.335 0 0 0-2.09 2.088c-21.807 22.96-20.872 59.249 2.09 81.054l386.62 367.167A57.34 57.34 0 0 0 955.662 813C987.33 813 1013 787.331 1013 755.667v-734.334a57.33 57.33 0 0 0-15.763-39.483c-21.807-22.959-58.1-23.894-81.06-2.088L529.555 346.929z"  horiz-adv-x="1024" />

    
    <glyph glyph-name="back" unicode="&#59018;" d="M256.084 456.06l180.935 180.935c28.008 28.009 28.025 73.403 0.036 101.391-27.988 27.989-73.383 27.973-101.39-0.036L31.383 434.07c-28.009-28.008-28.025-73.403-0.036-101.391l304.065-304.065c27.989-27.989 73.383-27.973 101.391 0.036 28.008 28.008 28.024 73.402 0.036 101.39L254.26 312.62H919.83c39.582 0 71.669 32.11 71.669 71.72s-32.087 71.72-71.669 71.72H256.084z"  horiz-adv-x="1024" />

    
    <glyph glyph-name="circle-close-outline" unicode="&#59019;" d="M772.182 644.232c-143.685 143.685-376.735 143.696-520.431 0-143.668-143.668-143.668-376.763 0-520.43 143.696-143.697 376.746-143.685 520.43 0 143.714 143.713 143.714 376.717 0 520.43z m56.568 56.569c174.955-174.956 174.955-458.613 0-633.568-174.91-174.91-458.612-174.955-633.568 0-174.91 174.91-174.91 458.658 0 633.568 174.956 174.955 458.658 174.91 633.568 0zM639.992 197.70299999999997c16.79-16.79 43.354-17.107 59.284-1.177 16.066 16.065 15.658 42.72-1.131 59.33l-128.072 128.07 128.162 128.162c16.654 16.654 17.197 43.264 1.086 59.284-16.065 15.975-42.584 15.613-59.329-1.132L511.876 442.124l-127.98 127.98c-16.655 16.745-43.265 17.197-59.375 1.268-15.975-15.975-15.477-42.72 1.176-59.284L453.77 384.017 325.607 255.85500000000002c-16.609-16.608-17.106-43.173-0.996-59.193 16.111-16.111 42.63-15.568 59.239 1.04L511.966 325.82000000000005l128.026-128.116z"  horiz-adv-x="1024" />

    
    <glyph glyph-name="outline_info" unicode="&#59020;" d="M512 752c-203.177 0-368-164.823-368-368 0-203.217 164.799-368 368-368 203.281 0 368 164.735 368 368 0 203.225-164.743 368-368 368z m0 80c247.488 0 448-200.64 448-448 0-247.424-200.512-448-448-448-247.36 0-448 200.576-448 448C64 631.36 264.64 832 512 832zM512 538c-26.432 0-48 21.504-48 48s21.568 48 48 48c26.624 0 48-21.504 48-48s-21.376-48-48-48z m48-340c0-26.56-21.376-48-48-48-26.432 0-48 21.44-48 48V422c0 26.56 21.568 48 48 48 26.624 0 48-21.44 48-48v-224z"  horiz-adv-x="1024" />

    
    <glyph glyph-name="d-arrow-left" unicode="&#59021;" d="M231.843 369.11199999999997L485.41 115.54499999999996c28.008-28.008 28.033-73.393 0.056-101.37-27.977-27.978-73.363-27.953-101.37 0.055L79.814 318.51c-28.008 28.009-28.034 73.394-0.056 101.372l303.944 303.944c27.977 27.977 73.362 27.952 101.37-0.056 28.009-28.009 28.034-73.394 0.057-101.371L231.843 369.11199999999997z m405.775 0l253.567-253.567c28.008-28.008 28.034-73.393 0.056-101.37-27.977-27.978-73.362-27.953-101.37 0.055L485.59 318.51c-28.01 28.009-28.034 73.394-0.057 101.372l303.944 303.944c27.977 27.977 73.363 27.952 101.37-0.056 28.01-28.009 28.034-73.394 0.057-101.371L637.618 369.11199999999997z"  horiz-adv-x="1024" />

    
    <glyph glyph-name="d-arrow-right" unicode="&#59022;" d="M767.157 369.11199999999997L513.59 115.54499999999996c-28.008-28.008-28.033-73.393-0.056-101.37 27.977-27.978 73.363-27.953 101.37 0.055l304.281 304.28c28.008 28.009 28.034 73.394 0.056 101.372L615.297 723.826c-27.977 27.977-73.362 27.952-101.37-0.056-28.009-28.009-28.034-73.394-0.057-101.371l253.287-253.287z m-405.775 0L107.815 115.54499999999996c-28.008-28.008-28.034-73.393-0.056-101.37 27.977-27.978 73.362-27.953 101.37 0.055l304.28 304.28c28.01 28.009 28.034 73.394 0.057 101.372L209.522 723.826c-27.977 27.977-73.363 27.952-101.37-0.056-28.01-28.009-28.034-73.394-0.057-101.371l253.287-253.287z"  horiz-adv-x="1024" />

    
    <glyph glyph-name="arrow-down" unicode="&#59023;" d="M512.5 280.923L223.028 570.394c-31.974 31.975-83.814 31.975-115.789 0-31.974-31.974-31.974-83.814 0-115.788l347.367-347.367c31.974-31.974 83.814-31.974 115.788 0l347.367 347.367c31.974 31.974 31.974 83.814 0 115.788-31.975 31.975-83.815 31.975-115.79 0L512.5 280.923z"  horiz-adv-x="1024" />

    
    <glyph glyph-name="plus" unicode="&#59024;" d="M415.59 466.41V753.09c0 45.238 36.673 81.91 81.91 81.91 45.237 0 81.91-36.672 81.91-81.91v-286.68h286.68c45.238 0 81.91-36.673 81.91-81.91 0-45.237-36.672-81.91-81.91-81.91H579.41v-286.68c0-45.238-36.673-81.91-81.91-81.91-45.237 0-81.91 36.672-81.91 81.91V302.59000000000003H128.91C83.671 302.59000000000003 47 339.264 47 384.5c0 45.237 36.672 81.91 81.91 81.91h286.68z"  horiz-adv-x="1024" />

    
    <glyph glyph-name="outline_d_up" unicode="&#59025;" d="M520.039 132.38400000000001L262.085 381.48699999999997c-28.493 27.515-73.871 26.748-101.356-1.714-27.485-28.46-26.668-73.839 1.825-101.354L472.1-20.504999999999995c28.492-27.515 73.871-26.748 101.356 1.714L872.048 290.40999999999997c27.485 28.461 26.668 73.84-1.825 101.354-28.493 27.515-73.872 26.748-101.356-1.713L520.039 132.38400000000001z m-7.082 405.713L255.004 787.2c-28.493 27.515-73.872 26.748-101.357-1.713-27.485-28.461-26.667-73.84 1.825-101.354l309.545-298.924c28.493-27.515 73.871-26.748 101.356 1.713l298.593 309.202c27.485 28.462 26.668 73.84-1.825 101.355s-73.871 26.748-101.356-1.713L512.957 538.097z"  horiz-adv-x="1024" />

    
    <glyph glyph-name="arrow-right" unicode="&#59026;" d="M392.606 672.972c-31.975 31.974-31.975 83.814 0 115.789 31.974 31.974 83.814 31.974 115.788 0l347.367-347.367c31.974-31.974 31.974-83.814 0-115.788L508.394-21.760999999999967c-31.974-31.974-83.814-31.974-115.788 0-31.975 31.975-31.975 83.815 0 115.79L682.077 383.5 392.606 672.972z"  horiz-adv-x="1024" />

    
    <glyph glyph-name="outline_d_down" unicode="&#59027;" d="M520.039 132.38400000000001L262.085 381.48699999999997c-28.493 27.515-73.871 26.748-101.356-1.714-27.485-28.46-26.668-73.839 1.825-101.354L472.1-20.504999999999995c28.492-27.515 73.871-26.748 101.356 1.714L872.048 290.40999999999997c27.485 28.461 26.668 73.84-1.825 101.354-28.493 27.515-73.872 26.748-101.356-1.713L520.039 132.38400000000001z m-7.082 405.713L255.004 787.2c-28.493 27.515-73.872 26.748-101.357-1.713-27.485-28.461-26.667-73.84 1.825-101.354l309.545-298.924c28.493-27.515 73.871-26.748 101.356 1.713l298.593 309.202c27.485 28.462 26.668 73.84-1.825 101.355s-73.871 26.748-101.356-1.713L512.957 538.097z"  horiz-adv-x="1024" />

    
    <glyph glyph-name="arrow-left" unicode="&#59028;" d="M365.931 371.5l325.711 325.711c35.977 35.977 35.977 94.307 0 130.284-35.977 35.978-94.307 35.978-130.284 0L170.505 436.642c-35.978-35.977-35.978-94.307 0-130.284l390.853-390.853c35.977-35.978 94.307-35.978 130.284 0 35.977 35.977 35.977 94.307 0 130.284L365.932 371.5z"  horiz-adv-x="1024" />

    
    <glyph glyph-name="outline_go" unicode="&#59029;" d="M745.916 456.06L564.981 636.995c-28.008 28.009-28.025 73.403-0.036 101.391 27.988 27.989 73.383 27.973 101.39-0.036l304.281-304.28c28.009-28.008 28.025-73.403 0.036-101.391L666.587 28.614000000000033c-27.989-27.989-73.383-27.973-101.391 0.036-28.008 28.008-28.024 73.402-0.036 101.39l182.58 182.58H82.17c-39.582 0-71.669 32.11-71.669 71.72s32.087 71.72 71.669 71.72h663.747z"  horiz-adv-x="1024" />

    
    <glyph glyph-name="download" unicode="&#59030;" d="M440.44 120.63999999999999L259.472 301.606c-28.008 28.008-73.41 28.017-101.407 0.02-27.997-27.998-27.988-73.4 0.02-101.407l304.28-304.28c28.008-28.01 73.41-28.018 101.407-0.02l304.163 304.162c27.997 27.997 27.988 73.399-0.02 101.407-28.008 28.008-73.41 28.017-101.407 0.02L583.88 118.87900000000002V616.596c0 39.594-32.11 71.691-71.72 71.691s-71.719-32.097-71.719-71.691v-495.956zM307.647 893c-39.61 0-71.72-32.098-71.72-71.692 0-39.594 32.11-71.692 71.72-71.692h409.88c39.609 0 71.719 32.098 71.719 71.692 0 39.594-32.11 71.692-71.72 71.692h-409.88z"  horiz-adv-x="1024" />

    
    <glyph glyph-name="rank" unicode="&#59031;" d="M774.981 432l-29.716 29.716c-15.62 15.62-15.62 40.947 0 56.568 15.621 15.621 40.948 15.621 56.569 0l97.55-97.55c15.62-15.62 15.62-40.947 0-56.568l-97.55-97.55c-15.621-15.62-40.948-15.62-56.569 0-15.62 15.622-15.62 40.948 0 56.57L774.08 352H558.25v-237.83l28.565 28.565c15.62 15.62 40.947 15.62 56.568 0 15.621-15.621 15.621-40.948 0-56.569l-97.55-97.55c-15.62-15.62-40.947-15.62-56.568 0l-97.55 97.55c-15.62 15.621-15.62 40.948 0 56.569 15.622 15.62 40.948 15.62 56.57 0l29.965-29.966V352H246.019l28.815-28.815c15.62-15.62 15.62-40.947 0-56.568-15.621-15.621-40.948-15.621-56.569 0l-97.55 97.55c-15.62 15.62-15.62 40.947 0 56.568l97.55 97.55c15.621 15.62 40.948 15.62 56.569 0 15.62-15.622 15.62-40.948 0-56.57L245.118 432H478.25V657.1320000000001l-29.966-29.966c-15.62-15.62-40.947-15.62-56.568 0-15.621 15.621-15.621 40.948 0 56.569l97.55 97.55c15.62 15.62 40.947 15.62 56.568 0l97.55-97.55c15.62-15.621 15.62-40.948 0-56.569-15.622-15.62-40.948-15.62-56.57 0l-28.564 28.565V432h216.731z"  horiz-adv-x="1024" />

    
    <glyph glyph-name="arrow-up" unicode="&#59032;" d="M512.5 524.077L223.028 234.606c-31.974-31.975-83.814-31.975-115.789 0-31.974 31.974-31.974 83.814 0 115.788l347.367 347.367c31.974 31.974 83.814 31.974 115.788 0l347.367-347.367c31.974-31.974 31.974-83.814 0-115.788-31.975-31.975-83.815-31.975-115.79 0L512.5 524.077z"  horiz-adv-x="1024" />

    
    <glyph glyph-name="upload2" unicode="&#59033;" d="M440.44 647.36L259.472 466.394c-28.008-28.008-73.41-28.017-101.407-0.02-27.997 27.998-27.988 73.4 0.02 101.407l304.28 304.28c28.008 28.01 73.41 28.018 101.407 0.02l304.163-304.162c27.997-27.997 27.988-73.399-0.02-101.407-28.008-28.008-73.41-28.017-101.407-0.02L583.88 649.121v-497.716c0-39.594-32.11-71.691-71.72-71.691s-71.719 32.097-71.719 71.691V647.361zM307.647-125c-39.61 0-71.72 32.098-71.72 71.692 0 39.594 32.11 71.692 71.72 71.692h409.88c39.609 0 71.719-32.098 71.719-71.692 0-39.594-32.11-71.692-71.72-71.692h-409.88z"  horiz-adv-x="1024" />

    
    <glyph glyph-name="remove-outline" unicode="&#59034;" d="M512 752c-203.201 0-368-164.783-368-368 0-203.177 164.823-368 368-368 203.217 0 368 164.799 368 368 0 203.241-164.759 368-368 368z m0 80c247.424 0 448-200.576 448-448 0-247.36-200.576-448-448-448-247.36 0-448 200.64-448 448C64 631.424 264.64 832 512 832zM734.272 342.784l-444.544 0.064c-23.488-0.064-42.752 18.496-42.752 41.088 0.128 22.656 19.264 41.152 42.88 41.088h444.416c23.616 0.128 42.752-18.432 42.752-41.152 0-22.528-19.008-41.088-42.752-41.088z"  horiz-adv-x="1024" />

    
    <glyph glyph-name="zoom-out" unicode="&#59035;" d="M777.492 158.34000000000003l176.3-149.936c17.249-14.67 19.34-40.545 4.67-57.794-14.67-17.25-40.545-19.34-57.794-4.67l-179.23 152.426a41.677 41.677 0 0 0-1.555 1.39C650.781 42.56899999999996 562.104 8.200000000000045 465.4 8.200000000000045 244.817 8.200000000000045 66 187.01700000000005 66 407.6 66 628.183 244.817 807 465.4 807c220.583 0 399.4-178.817 399.4-399.4 0-94.285-32.67-180.94-87.308-249.26zM465.4 90.20000000000005c175.295 0 317.4 142.105 317.4 317.4S640.695 725 465.4 725 148 582.895 148 407.6s142.105-317.4 317.4-317.4zM305 367c-22.644 0-41 18.356-41 41s18.356 41 41 41h320c22.644 0 41-18.356 41-41s-18.356-41-41-41H305z"  horiz-adv-x="1024" />

    
    <glyph glyph-name="zoom-in" unicode="&#59036;" d="M424 449V568c0 22.644 18.356 41 41 41s41-18.356 41-41v-119h119c22.644 0 41-18.356 41-41s-18.356-41-41-41H506v-119c0-22.644-18.356-41-41-41s-41 18.356-41 41V367H305c-22.644 0-41 18.356-41 41s18.356 41 41 41h119z m353.492-290.66l176.3-149.936c17.249-14.67 19.34-40.545 4.67-57.794-14.67-17.25-40.545-19.34-57.794-4.67l-179.23 152.426a41.677 41.677 0 0 0-1.555 1.39C650.781 42.56899999999996 562.104 8.200000000000045 465.4 8.200000000000045 244.817 8.200000000000045 66 187.01700000000005 66 407.6 66 628.183 244.817 807 465.4 807c220.583 0 399.4-178.817 399.4-399.4 0-94.285-32.67-180.94-87.308-249.26zM465.4 90.20000000000005c175.295 0 317.4 142.105 317.4 317.4S640.695 725 465.4 725 148 582.895 148 407.6s142.105-317.4 317.4-317.4z"  horiz-adv-x="1024" />

    
    <glyph glyph-name="outline_why" unicode="&#59037;" d="M512 752c-203.177 0-368-164.823-368-368 0-203.217 164.799-368 368-368 203.281 0 368 164.735 368 368 0 203.225-164.743 368-368 368z m0 80c247.488 0 448-200.64 448-448 0-247.424-200.512-448-448-448-247.36 0-448 200.576-448 448C64 631.36 264.64 832 512 832zM432.965 469.853C432.103 449.354 415.211 433 394.5 433c-20.711 0-37.603 16.354-38.465 36.853H356c0 0.397 0 0.793 0.003 1.189a39.288 39.288 0 0 0 0.01 1.493c0.501 49.037 14.8 87.58 44.183 115.628C429.434 616.721 468.871 631 519.186 631c44.197 0 80.234-11.56 107.432-36.037 27.198-23.798 40.797-56.436 40.797-97.912 0-33.997-8.84-61.875-25.158-83.633-6.12-6.8-25.838-25.158-58.475-53.716-12.24-10.2-21.079-21.758-27.198-33.997-2.07-4.141-3.905-10.127-5.502-17.956-4.247-20.812-22.554-35.76-43.794-35.76-19.478 0-35.267 15.79-35.267 35.267 0 1.76 0.131 3.519 0.394 5.26 2.488 16.495 5.613 28.371 9.375 35.627 8.84 18.358 35.357 46.916 79.553 86.353l8.16 9.52c12.239 14.958 18.358 31.277 18.358 48.275 0 22.438-6.8 40.117-19.038 53.036-12.92 12.919-31.278 19.038-54.396 19.038-29.917 0-50.996-8.839-63.915-27.877-11.559-15.64-17.489-38.077-17.489-66.635h-0.058zM512 128c-26.432 0-48 21.504-48 48s21.568 48 48 48c26.624 0 48-21.504 48-48s-21.376-48-48-48z"  horiz-adv-x="1024" />

    
    <glyph glyph-name="close" unicode="&#59038;" d="M499.347 498.377l202.956 202.956c32 32 83.871 32.012 115.857 0.027 31.985-31.986 31.973-83.857-0.027-115.857L615.177 382.547l201.901-201.901c31.986-31.986 31.973-83.857-0.027-115.857s-83.87-32.012-115.856-0.027L499.293 266.664 296.657 64.02700000000004c-32-32-83.871-32.012-115.857-0.027-31.985 31.986-31.973 83.856 0.027 115.857l202.637 202.636-203.502 203.502c-31.985 31.985-31.973 83.856 0.027 115.856s83.871 32.013 115.857 0.027l203.501-203.501z"  horiz-adv-x="1024" />

    
    <glyph glyph-name="page_left" unicode="&#59039;" d="M286.744 814c39.588 0 71.68-32.092 71.68-71.68v-716.64c0-39.588-32.092-71.68-71.68-71.68h-0.064c-39.588 0-71.68 32.092-71.68 71.68V742.3199999999999C215 781.908 247.092 814 286.68 814h0.064z m89.542-466.076a57.352 57.352 0 0 0-2.09 2.089c-21.82 22.96-20.884 59.248 2.09 81.054L763.122 798.238A57.389 57.389 0 0 0 802.63 814c31.685 0 57.37-25.669 57.37-57.333v-734.342a57.314 57.314 0 0 0-15.772-39.483c-21.82-22.96-58.132-23.894-81.106-2.089L376.286 347.924z"  horiz-adv-x="1024" />

    
    <glyph glyph-name="outline_warning" unicode="&#59040;" d="M512 752c-203.177 0-368-164.823-368-368 0-203.217 164.799-368 368-368 203.281 0 368 164.735 368 368 0 203.225-164.743 368-368 368z m0 80c247.488 0 448-200.64 448-448 0-247.424-200.512-448-448-448-247.36 0-448 200.576-448 448C64 631.36 264.64 832 512 832zM512 128c-26.432 0-48 21.504-48 48s21.568 48 48 48c26.624 0 48-21.504 48-48s-21.376-48-48-48z m48 240c0-26.56-21.376-48-48-48-26.432 0-48 21.44-48 48V592c0 26.56 21.568 48 48 48 26.624 0 48-21.44 48-48v-224z"  horiz-adv-x="1024" />

    
    <glyph glyph-name="check" unicode="&#59041;" d="M407.123 240.44799999999998L870.47 703.796c31.988 31.987 83.848 31.989 115.834 0.004 31.985-31.986 31.983-83.846-0.004-115.833L475.288 76.95500000000004a82.41 82.41 0 0 0-9.35-11.16c-31.987-31.987-83.847-31.989-115.833-0.003L43.792 372.105c-31.986 31.986-31.984 83.846 0.003 115.833 31.988 31.988 83.848 31.99 115.834 0.004l247.494-247.494z"  horiz-adv-x="1024" />

    
    <glyph glyph-name="page_right" unicode="&#59042;" d="M698.409 347.924l-386.593-367.17c-22.959-21.806-59.248-20.871-81.054 2.088A57.333 57.333 0 0 0 215 22.325000000000045V756.667C215 788.33 240.669 814 272.333 814a57.333 57.333 0 0 0 39.483-15.762l386.593-367.17c22.959-21.807 23.894-58.096 2.088-81.055a57.333 57.333 0 0 0-2.088-2.089zM788.333 814C827.913 814 860 781.914 860 742.333v-716.666c0-39.58-32.086-71.667-71.667-71.667-39.58 0-71.666 32.086-71.666 71.667V742.333c0 39.58 32.086 71.667 71.666 71.667z"  horiz-adv-x="1024" />

    
    <glyph glyph-name="nav_photo" unicode="&#59045;" d="M306.4 188.70399999999995c0.753 0.593 0.524 1.419 0.528 2.167 0.05 10.131 1.275 20.155 2.592 30.195a245.82 245.82 0 0 0 12.151 50.498c5.42 15.246 12.419 29.846 21.321 43.557a211.413 211.413 0 0 0 22.976 29.405c9.977 10.67 21.111 20.001 33.281 28.258 12.79 8.676 26.564 15.57 41.06 21.204 1.73 0.673 2.591 0.334 3.489-1.097a28934.769 28934.769 0 0 1 37.71-60.008c12.784-20.282 25.603-40.54 38.419-60.8 1.6-2.53 1.668-2.532 3.412 0.025a65588.653 65588.653 0 0 1 42.89 62.991c7.922 11.655 15.797 23.34 23.7 35.009 4.438 6.551 8.911 13.084 13.315 19.659 0.724 1.084 1.226 1.527 2.703 0.897 12.31-5.26 24.032-11.51 35.127-18.846 12.662-8.375 24.09-18.154 34.438-29.018 11.928-12.525 21.913-26.417 30.304-41.389 12.143-21.671 20.073-44.726 24.998-68.8 2.047-9.995 3.582-20.051 4.369-30.228 0.42-5.472 1.109-10.922 1.011-16.424-0.012-0.673-0.144-1.401 0.53-1.908v-11.895c-0.827-0.849-1.925-1.234-3.015-1.64-23.797-8.855-48.059-16.317-72.824-22.223-25.196-6.012-50.676-10.566-76.52-13.154-12.4-1.24-24.8-2.165-37.281-2.365-14.446-0.232-28.89-0.265-43.33-0.122-27.061 0.267-53.84 3.479-80.455 7.983-25.838 4.375-51.274 10.382-76.343 17.822-12.607 3.742-25.118 7.75-37.497 12.135-1.09 0.387-2.225 0.705-3.058 1.564l-0.001 16.548z m222.345 230.339c-66.023 0-119.545 53.522-119.545 119.545s53.522 119.545 119.545 119.545S648.29 604.611 648.29 538.588s-53.522-119.545-119.545-119.545z"  horiz-adv-x="1024" />

    
    <glyph glyph-name="message" unicode="&#59046;" d="M278.79 635.8l235.454-203.488L749.697 635.8H278.79z m546.363-35.169a38.552 38.552 0 0 0-5.557-5.928L539.353 352.505c-14.42-12.462-35.799-12.462-50.218 0L208.89 594.703a38.353 38.353 0 0 0-8.023 9.62c-5.634-9.53-8.868-20.65-8.868-32.523v-358.4c0-35.346 28.654-64 64-64h512c35.346 0 64 28.654 64 64V571.8c0 10.372-2.467 20.167-6.847 28.831zM256 712.6h512c77.762 0 140.8-63.038 140.8-140.8v-358.4c0-77.762-63.038-140.8-140.8-140.8H256c-77.762 0-140.8 63.038-140.8 140.8V571.8c0 77.762 63.038 140.8 140.8 140.8z"  horiz-adv-x="1024" />

    
    <glyph glyph-name="rate-face-3" unicode="&#59047;" d="M511.8-76.60000000000002C257.848-76.60000000000002 51 130.24800000000005 51 384.2S257.848 845 511.8 845s460.8-206.848 460.8-460.8-206.848-460.8-460.8-460.8z m0 847.9c-213.555 0-387.1-173.42-387.1-387.1 0-213.68 173.42-387.1 387.1-387.1 213.68 0 387.1 173.42 387.1 387.1 0 213.68-173.545 387.1-387.1 387.1zM667.776 557.312c-32.256 0-58.496-26.24-58.496-58.496s26.24-58.496 58.496-58.496 58.496 26.24 58.496 58.496c0 32.128-26.24 58.496-58.496 58.496z m-308.352 0c-32.256 0-58.496-26.24-58.496-58.496s26.24-58.496 58.496-58.496 58.496 26.24 58.496 58.496c0.128 32.128-26.24 58.496-58.496 58.496zM335 293h353.45c-5.856-89.591-82.74-160.5-176.725-160.5S340.855 203.409 335 293z"  horiz-adv-x="1024" />

    
    <glyph glyph-name="rate-face-2" unicode="&#59048;" d="M512-76.79999999999995C258.048-76.79999999999995 51.2 130.048 51.2 384S258.048 844.8 512 844.8 972.8 637.952 972.8 384 765.952-76.79999999999995 512-76.79999999999995z m0 847.9c-213.555 0-387.1-173.42-387.1-387.1 0-213.68 173.42-387.1 387.1-387.1 213.68 0 387.1 173.42 387.1 387.1 0 213.68-173.545 387.1-387.1 387.1zM352.512 314.624c6.912 0 13.824-3.2 17.92-9.728 31.36-47.872 83.84-76.544 140.544-76.544 56.704 0 109.184 28.544 140.544 76.544 6.4 10.112 19.84 12.928 29.952 6.4 10.112-6.4 12.928-19.84 6.4-29.952-39.168-59.904-105.088-95.872-176.512-95.872-70.912 0-137.344 35.968-176.512 95.872-6.4 10.112-3.712 23.552 6.4 29.952 3.456 1.92 7.68 3.328 11.264 3.328z m315.264 242.688c-32.256 0-58.496-26.24-58.496-58.496s26.24-58.496 58.496-58.496 58.496 26.24 58.496 58.496c0 32.128-26.24 58.496-58.496 58.496z m-308.352 0c-32.256 0-58.496-26.24-58.496-58.496s26.24-58.496 58.496-58.496 58.496 26.24 58.496 58.496c0.128 32.128-26.24 58.496-58.496 58.496z"  horiz-adv-x="1024" />

    
    <glyph glyph-name="rate-face-1" unicode="&#59049;" d="M512-76.79999999999995C258.048-76.79999999999995 51.2 130.048 51.2 384S258.048 844.8 512 844.8 972.8 637.952 972.8 384 765.952-76.79999999999995 512-76.79999999999995z m0 847.9c-213.555 0-387.1-173.42-387.1-387.1 0-213.68 173.42-387.1 387.1-387.1 213.68 0 387.1 173.42 387.1 387.1 0 213.68-173.545 387.1-387.1 387.1zM667.776 557.312c-32.256 0-58.496-26.24-58.496-58.496s26.24-58.496 58.496-58.496 58.496 26.24 58.496 58.496c0 32.128-26.24 58.496-58.496 58.496z m-308.352 0c-32.256 0-58.496-26.24-58.496-58.496s26.24-58.496 58.496-58.496 58.496 26.24 58.496 58.496c0.128 32.128-26.24 58.496-58.496 58.496zM352.512 183.65700000000004c6.912 0 13.824 3.2 17.92 9.728 31.36 47.872 83.84 76.544 140.544 76.544 56.704 0 109.184-28.544 140.544-76.544 6.4-10.112 19.84-12.928 29.952-6.4 10.112 6.4 12.928 19.84 6.4 29.952-39.168 59.904-105.088 95.872-176.512 95.872-70.912 0-137.344-35.968-176.512-95.872-6.4-10.112-3.712-23.552 6.4-29.952 3.456-1.92 7.68-3.328 11.264-3.328z"  horiz-adv-x="1024" />

    


  </font>
</defs>
</svg>
